<svg width="448" height="290" viewBox="0 0 448 290" fill="none" xmlns="http://www.w3.org/2000/svg">
<g filter="url(#filter0_d_3964_15379)">
<rect x="9" y="5" width="430" height="272" rx="5" fill="white"/>
</g>
<rect x="25.3347" y="45.3347" width="229.331" height="219.331" rx="1.67329" fill="white" stroke="#E4EAF0" stroke-width="0.669316"/>
<path fill-rule="evenodd" clip-rule="evenodd" d="M219 72.9921C219 74.101 218.101 75 216.992 75H63.0079C61.899 75 61 74.101 61 72.9921V57.0079C61 55.899 61.899 55 63.008 55H216.992C218.101 55 219 55.899 219 57.0079V72.9921Z" fill="#E4EAF0"/>
<path fill-rule="evenodd" clip-rule="evenodd" d="M242.061 73.1228C242.061 74.2317 241.162 75.1307 240.053 75.1307H224.008C222.899 75.1307 222 74.2317 222 73.1228V57.0079C222 55.899 222.899 55 224.008 55H240.053C241.162 55 242.061 55.899 242.061 57.0079V73.1228Z" fill="#E4EAF0"/>
<path d="M233.838 65.5512L230.957 68.2697C230.592 68.6156 230.024 68.3262 230.024 67.7826L230.024 62.3455C230.024 61.8088 230.585 61.5123 230.957 61.8584L233.838 64.577C234.103 64.831 234.103 65.2971 233.838 65.5512L233.838 65.5512Z" fill="#9DAABF"/>
<path fill-rule="evenodd" clip-rule="evenodd" d="M38 73.1228C38 74.2317 38.899 75.1307 40.0079 75.1307H56.0528C57.1618 75.1307 58.0608 74.2317 58.0608 73.1228V57.0079C58.0608 55.899 57.1618 55 56.0528 55H40.0079C38.899 55 38 55.899 38 57.0079V73.1228Z" fill="#E4EAF0"/>
<path d="M46.2227 65.5512L49.1034 68.2697C49.469 68.6156 50.0364 68.3262 50.0364 67.7826L50.0364 62.3455C50.0364 61.8088 49.4755 61.5123 49.1034 61.8584L46.2227 64.577C45.958 64.831 45.958 65.2971 46.2227 65.5512L46.2227 65.5512Z" fill="#9DAABF"/>
<rect x="44.0303" y="87.1307" width="12" height="7" rx="3.5" fill="#E4EAF0"/>
<rect x="74.0303" y="87.1307" width="12" height="7" rx="3.5" fill="#E4EAF0"/>
<rect x="104.03" y="87.1307" width="12" height="7" rx="3.5" fill="#E4EAF0"/>
<rect x="134.03" y="87.1307" width="12" height="7" rx="3.5" fill="#E4EAF0"/>
<rect x="164.03" y="87.1307" width="12" height="7" rx="3.5" fill="#E4EAF0"/>
<rect x="194.03" y="87.1307" width="12" height="7" rx="3.5" fill="#E4EAF0"/>
<rect x="224.03" y="87.1307" width="12" height="7" rx="3.5" fill="#E4EAF0"/>
<rect x="128" y="110.131" width="24" height="24" rx="12" fill="#F7F9FB"/>
<rect x="158" y="110.131" width="24" height="24" rx="12" fill="#F7F9FB"/>
<rect x="188" y="110.131" width="24" height="24" rx="12" fill="#F7F9FB"/>
<rect x="218" y="110.131" width="24" height="24" rx="12" fill="#F7F9FB"/>
<rect x="38" y="140.131" width="24" height="24" rx="12" fill="#F7F9FB"/>
<rect x="68" y="140.131" width="24" height="24" rx="12" fill="#F7F9FB"/>
<rect x="98" y="140.131" width="24" height="24" rx="12" fill="#E5F3FD"/>
<rect x="128" y="140.131" width="24" height="24" rx="12" fill="#F7F9FB"/>
<rect x="158" y="140.131" width="24" height="24" rx="12" fill="#F7F9FB"/>
<rect x="188" y="140.131" width="24" height="24" rx="12" fill="#F7F9FB"/>
<rect x="218" y="140.131" width="24" height="24" rx="12" fill="#F7F9FB"/>
<rect x="38" y="170.131" width="24" height="24" rx="12" fill="#F7F9FB"/>
<rect x="68" y="170.131" width="24" height="24" rx="12" fill="#F7F9FB"/>
<rect x="98" y="170.131" width="24" height="24" rx="12" fill="#F7F9FB"/>
<rect x="128" y="170.131" width="24" height="24" rx="12" fill="#F7F9FB"/>
<rect x="158" y="170.131" width="24" height="24" rx="12" fill="#02C797"/>
<path d="M174.294 178.833C174.234 178.769 174.163 178.718 174.085 178.683C174.007 178.649 173.924 178.631 173.839 178.631C173.755 178.631 173.671 178.649 173.593 178.683C173.515 178.718 173.444 178.769 173.384 178.833L168.614 183.942L166.609 181.792C166.547 181.728 166.474 181.678 166.394 181.644C166.314 181.61 166.229 181.594 166.143 181.595C166.057 181.597 165.972 181.617 165.894 181.653C165.815 181.69 165.743 181.743 165.684 181.809C165.624 181.875 165.577 181.953 165.546 182.039C165.514 182.124 165.499 182.215 165.5 182.307C165.502 182.399 165.52 182.49 165.554 182.574C165.588 182.658 165.638 182.735 165.7 182.798L168.159 185.428C168.218 185.492 168.289 185.543 168.367 185.578C168.445 185.613 168.529 185.631 168.614 185.631C168.698 185.631 168.782 185.613 168.86 185.578C168.938 185.543 169.009 185.492 169.068 185.428L174.294 179.84C174.359 179.776 174.411 179.698 174.446 179.611C174.482 179.525 174.5 179.431 174.5 179.337C174.5 179.242 174.482 179.149 174.446 179.062C174.411 178.975 174.359 178.897 174.294 178.833Z" fill="white"/>
<rect x="188" y="170.131" width="24" height="24" rx="12" fill="#F7F9FB"/>
<rect x="218" y="170.131" width="24" height="24" rx="12" fill="#F7F9FB"/>
<rect x="38" y="200.131" width="24" height="24" rx="12" fill="#F7F9FB"/>
<rect x="68" y="200.131" width="24" height="24" rx="12" fill="#F7F9FB"/>
<rect x="98" y="200.131" width="24" height="24" rx="12" fill="#F7F9FB"/>
<rect x="128" y="200.131" width="24" height="24" rx="12" fill="#F7F9FB"/>
<rect x="158" y="200.131" width="24" height="24" rx="12" fill="#F7F9FB"/>
<rect x="188" y="200.131" width="24" height="24" rx="12" fill="#F7F9FB"/>
<rect x="218" y="200.131" width="24" height="24" rx="12" fill="#F7F9FB"/>
<rect x="38" y="230.131" width="24" height="24" rx="12" fill="#F7F9FB"/>
<rect x="68" y="230.131" width="24" height="24" rx="12" fill="#F7F9FB"/>
<rect x="98" y="230.131" width="24" height="24" rx="12" fill="#F7F9FB"/>
<rect x="128" y="230.131" width="24" height="24" rx="12" fill="#F7F9FB"/>
<rect x="269.335" y="45.3347" width="153.331" height="219.331" rx="1.67329" fill="white" stroke="#E4EAF0" stroke-width="0.669316"/>
<path d="M410.665 72.9921C410.665 73.9162 409.916 74.6653 408.992 74.6653H283.008C282.084 74.6653 281.335 73.9162 281.335 72.9921V57.0079C281.335 56.0838 282.084 55.3347 283.008 55.3347H408.992C409.916 55.3347 410.665 56.0838 410.665 57.0079V72.9921Z" fill="white" stroke="#D3DAE3" stroke-width="0.669316"/>
<rect x="304" y="62" width="84" height="6" rx="3" fill="#E4EAF0"/>
<path d="M410.665 98.9921C410.665 99.9162 409.916 100.665 408.992 100.665H283.008C282.084 100.665 281.335 99.9162 281.335 98.9921V83.0079C281.335 82.0838 282.084 81.3347 283.008 81.3347H408.992C409.916 81.3347 410.665 82.0838 410.665 83.0079V98.9921Z" fill="white" stroke="#02C797" stroke-width="0.669316"/>
<path d="M308.597 88.0795H307.44L306 88.9915V90.0824L307.332 89.2472H307.366V93.8977H308.597V88.0795Z" fill="#02C797"/>
<path d="M312.261 94.0256C313.724 94.0256 314.607 92.9119 314.61 90.9943C314.613 89.0909 313.718 88 312.261 88C310.8 88 309.914 89.0881 309.911 90.9943C309.906 92.9063 310.795 94.0227 312.261 94.0256ZM312.261 93.0057C311.593 93.0057 311.161 92.3352 311.164 90.9943C311.167 89.6733 311.596 89.0085 312.261 89.0085C312.923 89.0085 313.354 89.6733 313.354 90.9943C313.357 92.3352 312.925 93.0057 312.261 93.0057Z" fill="#02C797"/>
<path d="M316.206 90.3693C316.57 90.3693 316.885 90.0653 316.888 89.6875C316.885 89.3153 316.57 89.0114 316.206 89.0114C315.831 89.0114 315.521 89.3153 315.524 89.6875C315.521 90.0653 315.831 90.3693 316.206 90.3693ZM316.206 93.2216C316.57 93.2216 316.885 92.9176 316.888 92.5398C316.885 92.1676 316.57 91.8636 316.206 91.8636C315.831 91.8636 315.521 92.1676 315.524 92.5398C315.521 92.9176 315.831 93.2216 316.206 93.2216Z" fill="#02C797"/>
<path d="M320.021 93.9773C321.327 93.9773 322.262 93.2585 322.259 92.2642C322.262 91.5398 321.802 91.0227 320.947 90.9148V90.8693C321.597 90.7528 322.046 90.2926 322.043 89.6392C322.046 88.7216 321.242 88 320.038 88C318.844 88 317.947 88.6989 317.93 89.7045H319.109C319.123 89.2614 319.529 88.9744 320.032 88.9744C320.529 88.9744 320.862 89.2756 320.859 89.7131C320.862 90.1705 320.472 90.4801 319.913 90.4801H319.37V91.3835H319.913C320.572 91.3835 320.984 91.7131 320.981 92.1818C320.984 92.6449 320.586 92.9631 320.023 92.9631C319.481 92.9631 319.075 92.679 319.052 92.2528H317.813C317.833 93.2699 318.742 93.9773 320.021 93.9773Z" fill="#02C797"/>
<path d="M325.425 94.0256C326.888 94.0256 327.771 92.9119 327.774 90.9943C327.777 89.0909 326.882 88 325.425 88C323.964 88 323.078 89.0881 323.075 90.9943C323.07 92.9063 323.959 94.0227 325.425 94.0256ZM325.425 93.0057C324.757 93.0057 324.325 92.3352 324.328 90.9943C324.331 89.6733 324.76 89.0085 325.425 89.0085C326.087 89.0085 326.518 89.6733 326.518 90.9943C326.521 92.3352 326.089 93.0057 325.425 93.0057Z" fill="#02C797"/>
<path d="M330.537 93.8977H331.767V92.0114H332.801C334.139 92.0114 334.918 91.2131 334.918 90.0511C334.918 88.8949 334.153 88.0795 332.832 88.0795H330.537V93.8977ZM331.767 91.0256V89.0852H332.597C333.307 89.0852 333.651 89.4716 333.651 90.0511C333.651 90.6278 333.307 91.0256 332.602 91.0256H331.767Z" fill="#02C797"/>
<path d="M335.717 88.0795V93.8977H336.91V90.0966H336.958L338.464 93.8693H339.276L340.782 90.1108H340.83V93.8977H342.023V88.0795H340.506L338.904 91.9886H338.836L337.234 88.0795H335.717Z" fill="#02C797"/>
<path d="M347.585 90.5085H344.931V91.4688H347.585V90.5085Z" fill="#02C797"/>
<path d="M352.987 88.0795H351.831L350.391 88.9915V90.0824L351.723 89.2472H351.757V93.8977H352.987V88.0795Z" fill="#02C797"/>
<path d="M356.901 88.0795H355.745L354.305 88.9915V90.0824L355.637 89.2472H355.671V93.8977H356.901V88.0795Z" fill="#02C797"/>
<path d="M359.003 90.3693C359.366 90.3693 359.682 90.0653 359.685 89.6875C359.682 89.3153 359.366 89.0114 359.003 89.0114C358.628 89.0114 358.318 89.3153 358.321 89.6875C358.318 90.0653 358.628 90.3693 359.003 90.3693ZM359.003 93.2216C359.366 93.2216 359.682 92.9176 359.685 92.5398C359.682 92.1676 359.366 91.8636 359.003 91.8636C358.628 91.8636 358.318 92.1676 358.321 92.5398C358.318 92.9176 358.628 93.2216 359.003 93.2216Z" fill="#02C797"/>
<path d="M362.948 94.0256C364.411 94.0256 365.295 92.9119 365.298 90.9943C365.3 89.0909 364.406 88 362.948 88C361.488 88 360.602 89.0881 360.599 90.9943C360.593 92.9063 361.482 94.0227 362.948 94.0256ZM362.948 93.0057C362.281 93.0057 361.849 92.3352 361.852 90.9943C361.854 89.6733 362.283 89.0085 362.948 89.0085C363.61 89.0085 364.042 89.6733 364.042 90.9943C364.045 92.3352 363.613 93.0057 362.948 93.0057Z" fill="#02C797"/>
<path d="M368.456 94.0256C369.919 94.0256 370.803 92.9119 370.805 90.9943C370.808 89.0909 369.913 88 368.456 88C366.996 88 366.109 89.0881 366.107 90.9943C366.101 92.9063 366.99 94.0227 368.456 94.0256ZM368.456 93.0057C367.788 93.0057 367.357 92.3352 367.359 90.9943C367.362 89.6733 367.791 89.0085 368.456 89.0085C369.118 89.0085 369.55 89.6733 369.55 90.9943C369.553 92.3352 369.121 93.0057 368.456 93.0057Z" fill="#02C797"/>
<path d="M373.568 93.8977H374.798V92.0114H375.832C377.17 92.0114 377.949 91.2131 377.949 90.0511C377.949 88.8949 377.185 88.0795 375.864 88.0795H373.568V93.8977ZM374.798 91.0256V89.0852H375.628C376.338 89.0852 376.682 89.4716 376.682 90.0511C376.682 90.6278 376.338 91.0256 375.634 91.0256H374.798Z" fill="#02C797"/>
<path d="M378.748 88.0795V93.8977H379.941V90.0966H379.989L381.495 93.8693H382.308L383.813 90.1108H383.862V93.8977H385.055V88.0795H383.538L381.935 91.9886H381.867L380.265 88.0795H378.748Z" fill="#02C797"/>
<path d="M410.665 124.992C410.665 125.916 409.916 126.665 408.992 126.665H283.008C282.084 126.665 281.335 125.916 281.335 124.992V109.008C281.335 108.084 282.084 107.335 283.008 107.335H408.992C409.916 107.335 410.665 108.084 410.665 109.008V124.992Z" fill="white" stroke="#D3DAE3" stroke-width="0.669316"/>
<rect x="304" y="114" width="84" height="6" rx="3" fill="#E4EAF0"/>
<path d="M410.665 150.992C410.665 151.916 409.916 152.665 408.992 152.665H283.008C282.084 152.665 281.335 151.916 281.335 150.992V135.008C281.335 134.084 282.084 133.335 283.008 133.335H408.992C409.916 133.335 410.665 134.084 410.665 135.008V150.992Z" fill="white" stroke="#D3DAE3" stroke-width="0.669316"/>
<rect x="304" y="141" width="84" height="6" rx="3" fill="#E4EAF0"/>
<path d="M410.665 176.992C410.665 177.916 409.916 178.665 408.992 178.665H283.008C282.084 178.665 281.335 177.916 281.335 176.992V161.008C281.335 160.084 282.084 159.335 283.008 159.335H408.992C409.916 159.335 410.665 160.084 410.665 161.008V176.992Z" fill="white" stroke="#D3DAE3" stroke-width="0.669316"/>
<rect x="304" y="166" width="84" height="6" rx="3" fill="#E4EAF0"/>
<path d="M410.665 202.992C410.665 203.916 409.916 204.665 408.992 204.665H283.008C282.084 204.665 281.335 203.916 281.335 202.992V187.008C281.335 186.084 282.084 185.335 283.008 185.335H408.992C409.916 185.335 410.665 186.084 410.665 187.008V202.992Z" fill="white" stroke="#D3DAE3" stroke-width="0.669316"/>
<rect x="304" y="192" width="84" height="6" rx="3" fill="#E4EAF0"/>
<path d="M410.665 228.992C410.665 229.916 409.916 230.665 408.992 230.665H283.008C282.084 230.665 281.335 229.916 281.335 228.992V213.008C281.335 212.084 282.084 211.335 283.008 211.335H408.992C409.916 211.335 410.665 212.084 410.665 213.008V228.992Z" fill="white" stroke="#D3DAE3" stroke-width="0.669316"/>
<rect x="304" y="218" width="84" height="6" rx="3" fill="#E4EAF0"/>
<path d="M410.665 254.992C410.665 255.916 409.916 256.665 408.992 256.665H283.008C282.084 256.665 281.335 255.916 281.335 254.992V239.008C281.335 238.084 282.084 237.335 283.008 237.335H408.992C409.916 237.335 410.665 238.084 410.665 239.008V254.992Z" fill="white" stroke="#D3DAE3" stroke-width="0.669316"/>
<rect x="304" y="244" width="84" height="6" rx="3" fill="#E4EAF0"/>
<path d="M142.313 23.16H143.634C143.594 21.7054 142.308 20.65 140.463 20.65C138.641 20.65 137.244 21.6921 137.244 23.2575C137.244 24.5214 138.149 25.262 139.608 25.6566L140.681 25.9493C141.652 26.2065 142.401 26.5258 142.401 27.3329C142.401 28.2198 141.554 28.8052 140.388 28.8052C139.333 28.8052 138.455 28.3351 138.375 27.3462H137C137.089 28.9915 138.361 30.007 140.397 30.007C142.53 30.007 143.758 28.885 143.758 27.3462C143.758 25.7099 142.299 25.0757 141.146 24.7919L140.259 24.5613C139.55 24.3795 138.605 24.0469 138.61 23.1777C138.61 22.4061 139.315 21.834 140.432 21.834C141.475 21.834 142.215 22.3218 142.313 23.16Z" fill="#5D6A7E"/>
<path d="M148.225 29.9937C149.711 29.9937 150.762 29.262 151.063 28.1533L149.808 27.9272C149.569 28.5702 148.992 28.8983 148.238 28.8983C147.103 28.8983 146.34 28.1622 146.305 26.8495H151.147V26.3795C151.147 23.9183 149.675 22.956 148.132 22.956C146.234 22.956 144.983 24.4017 144.983 26.4948C144.983 28.6101 146.216 29.9937 148.225 29.9937ZM146.309 25.8562C146.363 24.8895 147.063 24.0513 148.141 24.0513C149.17 24.0513 149.844 24.8141 149.848 25.8562H146.309Z" fill="#5D6A7E"/>
<path d="M155.798 23.0447H154.401V21.4127H153.075V23.0447H152.078V24.109H153.075V28.1311C153.071 29.3684 154.016 29.9671 155.062 29.9449C155.483 29.9405 155.767 29.8606 155.922 29.803L155.683 28.7076C155.594 28.7254 155.43 28.7653 155.217 28.7653C154.787 28.7653 154.401 28.6234 154.401 27.8562V24.109H155.798V23.0447Z" fill="#5D6A7E"/>
<path d="M159.976 20.7742L163.271 26.2908V29.8562H164.636V26.2908L167.931 20.7742H166.375L164.002 24.9028H163.905L161.532 20.7742H159.976Z" fill="#5D6A7E"/>
<path d="M170.878 29.9937C172.798 29.9937 174.053 28.5879 174.053 26.4815C174.053 24.3617 172.798 22.956 170.878 22.956C168.958 22.956 167.703 24.3617 167.703 26.4815C167.703 28.5879 168.958 29.9937 170.878 29.9937ZM170.882 28.8806C169.627 28.8806 169.042 27.7852 169.042 26.477C169.042 25.1733 169.627 24.0646 170.882 24.0646C172.129 24.0646 172.714 25.1733 172.714 26.477C172.714 27.7852 172.129 28.8806 170.882 28.8806Z" fill="#5D6A7E"/>
<path d="M179.848 27.0314C179.853 28.1888 178.992 28.7387 178.247 28.7387C177.427 28.7387 176.859 28.1444 176.859 27.2176V23.0447H175.533V27.3773C175.533 29.0668 176.46 29.9449 177.768 29.9449C178.793 29.9449 179.489 29.4039 179.804 28.6766H179.875V29.8562H181.178V23.0447H179.848V27.0314Z" fill="#5D6A7E"/>
<path d="M182.96 29.8562H184.286V25.6966C184.286 24.8052 184.973 24.1622 185.914 24.1622C186.188 24.1622 186.499 24.211 186.605 24.242V22.9737C186.472 22.956 186.211 22.9427 186.042 22.9427C185.244 22.9427 184.561 23.395 184.313 24.1267H184.242V23.0447H182.96V29.8562Z" fill="#5D6A7E"/>
<path d="M198.707 23.7276C198.397 21.7852 196.876 20.65 194.956 20.65C192.605 20.65 190.871 22.4105 190.871 25.3152C190.871 28.2198 192.596 29.9804 194.956 29.9804C196.951 29.9804 198.41 28.7298 198.707 26.9338L197.324 26.9294C197.089 28.0912 196.113 28.7298 194.965 28.7298C193.408 28.7298 192.233 27.5369 192.233 25.3152C192.233 23.1112 193.404 21.9005 194.969 21.9005C196.126 21.9005 197.098 22.5524 197.324 23.7276H198.707Z" fill="#5D6A7E"/>
<path d="M202.223 30.007C203.349 30.007 203.983 29.4349 204.236 28.9249H204.289V29.8562H205.584V25.3329C205.584 23.3507 204.023 22.956 202.941 22.956C201.708 22.956 200.573 23.4527 200.13 24.6943L201.376 24.9782C201.571 24.4948 202.068 24.0291 202.959 24.0291C203.815 24.0291 204.254 24.477 204.254 25.2487V25.2797C204.254 25.7631 203.757 25.7542 202.533 25.8961C201.243 26.0469 199.921 26.3839 199.921 27.9316C199.921 29.2708 200.928 30.007 202.223 30.007ZM202.511 28.9427C201.762 28.9427 201.221 28.6056 201.221 27.9493C201.221 27.2398 201.85 26.987 202.618 26.885C203.048 26.8274 204.068 26.7121 204.258 26.5214V27.3994C204.258 28.2065 203.615 28.9427 202.511 28.9427Z" fill="#5D6A7E"/>
<path d="M208.676 20.7742H207.35V29.8562H208.676V20.7742Z" fill="#5D6A7E"/>
<path d="M213.396 29.9937C214.881 29.9937 215.932 29.262 216.234 28.1533L214.979 27.9272C214.739 28.5702 214.163 28.8983 213.409 28.8983C212.274 28.8983 211.511 28.1622 211.476 26.8495H216.318V26.3795C216.318 23.9183 214.846 22.956 213.303 22.956C211.405 22.956 210.154 24.4017 210.154 26.4948C210.154 28.6101 211.387 29.9937 213.396 29.9937ZM211.48 25.8562C211.533 24.8895 212.234 24.0513 213.312 24.0513C214.34 24.0513 215.014 24.8141 215.019 25.8562H211.48Z" fill="#5D6A7E"/>
<path d="M219.115 25.8119C219.115 24.7254 219.78 24.1045 220.703 24.1045C221.603 24.1045 222.149 24.6943 222.149 25.6832V29.8562H223.474V25.5236C223.474 23.8385 222.548 22.956 221.155 22.956C220.131 22.956 219.461 23.4305 219.146 24.1533H219.062V23.0447H217.789V29.8562H219.115V25.8119Z" fill="#5D6A7E"/>
<path d="M227.803 29.9892C229.044 29.9892 229.532 29.2309 229.772 28.7963H229.882V29.8562H231.177V20.7742H229.851V24.1489H229.772C229.532 23.7276 229.08 22.956 227.812 22.956C226.166 22.956 224.956 24.2553 224.956 26.4637C224.956 28.6677 226.149 29.9892 227.803 29.9892ZM228.095 28.8584C226.911 28.8584 226.295 27.8163 226.295 26.4504C226.295 25.0979 226.898 24.0824 228.095 24.0824C229.253 24.0824 229.874 25.0269 229.874 26.4504C229.874 27.8828 229.239 28.8584 228.095 28.8584Z" fill="#5D6A7E"/>
<path d="M235.052 30.007C236.178 30.007 236.813 29.4349 237.065 28.9249H237.119V29.8562H238.414V25.3329C238.414 23.3507 236.853 22.956 235.771 22.956C234.538 22.956 233.402 23.4527 232.959 24.6943L234.205 24.9782C234.4 24.4948 234.897 24.0291 235.788 24.0291C236.644 24.0291 237.083 24.477 237.083 25.2487V25.2797C237.083 25.7631 236.586 25.7542 235.363 25.8961C234.072 26.0469 232.751 26.3839 232.751 27.9316C232.751 29.2708 233.757 30.007 235.052 30.007ZM235.34 28.9427C234.591 28.9427 234.05 28.6056 234.05 27.9493C234.05 27.2398 234.68 26.987 235.447 26.885C235.877 26.8274 236.897 26.7121 237.088 26.5214V27.3994C237.088 28.2065 236.445 28.9427 235.34 28.9427Z" fill="#5D6A7E"/>
<path d="M240.18 29.8562H241.506V25.6966C241.506 24.8052 242.193 24.1622 243.133 24.1622C243.408 24.1622 243.718 24.211 243.825 24.242V22.9737C243.692 22.956 243.43 22.9427 243.262 22.9427C242.463 22.9427 241.78 23.395 241.532 24.1267H241.461V23.0447H240.18V29.8562Z" fill="#5D6A7E"/>
<path d="M249.151 29.8562L249.984 27.4527H253.532L254.361 29.8562H255.816L252.548 20.7742H250.965L247.696 29.8562H249.151ZM250.384 26.2997L251.723 22.4238H251.794L253.133 26.2997H250.384Z" fill="#5D6A7E"/>
<path d="M261.994 23.0447H260.571L258.85 28.2864H258.779L257.054 23.0447H255.631L258.105 29.8562H259.524L261.994 23.0447Z" fill="#5D6A7E"/>
<path d="M265.016 30.007C266.142 30.007 266.776 29.4349 267.029 28.9249H267.082V29.8562H268.377V25.3329C268.377 23.3507 266.816 22.956 265.734 22.956C264.501 22.956 263.366 23.4527 262.922 24.6943L264.169 24.9782C264.364 24.4948 264.86 24.0291 265.752 24.0291C266.608 24.0291 267.047 24.477 267.047 25.2487V25.2797C267.047 25.7631 266.55 25.7542 265.326 25.8961C264.035 26.0469 262.714 26.3839 262.714 27.9316C262.714 29.2708 263.721 30.007 265.016 30.007ZM265.304 28.9427C264.554 28.9427 264.013 28.6056 264.013 27.9493C264.013 27.2398 264.643 26.987 265.41 26.885C265.84 26.8274 266.86 26.7121 267.051 26.5214V27.3994C267.051 28.2065 266.408 28.9427 265.304 28.9427Z" fill="#5D6A7E"/>
<path d="M270.143 29.8562H271.469V23.0447H270.143V29.8562ZM270.813 21.9937C271.269 21.9937 271.651 21.6389 271.651 21.2043C271.651 20.7697 271.269 20.4105 270.813 20.4105C270.351 20.4105 269.974 20.7697 269.974 21.2043C269.974 21.6389 270.351 21.9937 270.813 21.9937Z" fill="#5D6A7E"/>
<path d="M274.579 20.7742H273.253V29.8562H274.579V20.7742Z" fill="#5D6A7E"/>
<path d="M278.345 30.007C279.471 30.007 280.105 29.4349 280.358 28.9249H280.411V29.8562H281.706V25.3329C281.706 23.3507 280.145 22.956 279.063 22.956C277.83 22.956 276.695 23.4527 276.252 24.6943L277.498 24.9782C277.693 24.4948 278.19 24.0291 279.081 24.0291C279.937 24.0291 280.376 24.477 280.376 25.2487V25.2797C280.376 25.7631 279.879 25.7542 278.655 25.8961C277.365 26.0469 276.043 26.3839 276.043 27.9316C276.043 29.2708 277.05 30.007 278.345 30.007ZM278.633 28.9427C277.884 28.9427 277.343 28.6056 277.343 27.9493C277.343 27.2398 277.972 26.987 278.739 26.885C279.17 26.8274 280.19 26.7121 280.38 26.5214V27.3994C280.38 28.2065 279.737 28.9427 278.633 28.9427Z" fill="#5D6A7E"/>
<path d="M283.579 29.8562H284.874V28.7963H284.984C285.224 29.2309 285.712 29.9892 286.953 29.9892C288.603 29.9892 289.8 28.6677 289.8 26.4637C289.8 24.2553 288.585 22.956 286.94 22.956C285.676 22.956 285.219 23.7276 284.984 24.1489H284.905V20.7742H283.579V29.8562ZM284.878 26.4504C284.878 25.0269 285.499 24.0824 286.656 24.0824C287.858 24.0824 288.461 25.0979 288.461 26.4504C288.461 27.8163 287.84 28.8584 286.656 28.8584C285.517 28.8584 284.878 27.8828 284.878 26.4504Z" fill="#5D6A7E"/>
<path d="M291.289 29.8562H292.615V23.0447H291.289V29.8562ZM291.959 21.9937C292.416 21.9937 292.797 21.6389 292.797 21.2043C292.797 20.7697 292.416 20.4105 291.959 20.4105C291.498 20.4105 291.121 20.7697 291.121 21.2043C291.121 21.6389 291.498 21.9937 291.959 21.9937Z" fill="#5D6A7E"/>
<path d="M295.725 20.7742H294.399V29.8562H295.725V20.7742Z" fill="#5D6A7E"/>
<path d="M297.509 29.8562H298.835V23.0447H297.509V29.8562ZM298.178 21.9937C298.635 21.9937 299.017 21.6389 299.017 21.2043C299.017 20.7697 298.635 20.4105 298.178 20.4105C297.717 20.4105 297.34 20.7697 297.34 21.2043C297.34 21.6389 297.717 21.9937 298.178 21.9937Z" fill="#5D6A7E"/>
<path d="M303.798 23.0447H302.401V21.4127H301.075V23.0447H300.078V24.109H301.075V28.1311C301.071 29.3684 302.016 29.9671 303.062 29.9449C303.483 29.9405 303.767 29.8606 303.922 29.803L303.683 28.7076C303.594 28.7254 303.43 28.7653 303.217 28.7653C302.787 28.7653 302.401 28.6234 302.401 27.8562V24.109H303.798V23.0447Z" fill="#5D6A7E"/>
<path d="M306.103 32.4105C307.198 32.4105 307.89 31.8385 308.285 30.7653L311.101 23.058L309.669 23.0447L307.943 28.3307H307.872L306.147 23.0447H304.728L307.221 29.9449L307.057 30.3972C306.719 31.3019 306.245 31.3773 305.518 31.1777L305.198 32.2642C305.358 32.3351 305.704 32.4105 306.103 32.4105Z" fill="#5D6A7E"/>
<defs>
<filter id="filter0_d_3964_15379" x="0" y="0" width="448" height="290" filterUnits="userSpaceOnUse" color-interpolation-filters="sRGB">
<feFlood flood-opacity="0" result="BackgroundImageFix"/>
<feColorMatrix in="SourceAlpha" type="matrix" values="0 0 0 0 0 0 0 0 0 0 0 0 0 0 0 0 0 0 127 0" result="hardAlpha"/>
<feOffset dy="4"/>
<feGaussianBlur stdDeviation="4.5"/>
<feColorMatrix type="matrix" values="0 0 0 0 0 0 0 0 0 0 0 0 0 0 0 0 0 0 0.06 0"/>
<feBlend mode="normal" in2="BackgroundImageFix" result="effect1_dropShadow_3964_15379"/>
<feBlend mode="normal" in="SourceGraphic" in2="effect1_dropShadow_3964_15379" result="shape"/>
</filter>
</defs>
</svg>
